<svg width="20" height="20" fill="none" xmlns="http://www.w3.org/2000/svg"><path d="M1.667 10c0-3.143 0-4.714.976-5.69.977-.977 2.548-.977 5.69-.977h3.334c3.143 0 4.714 0 5.69.977.977.976.977 2.547.977 5.69v1.667c0 3.142 0 4.714-.977 5.69-.976.976-2.547.976-5.69.976H8.334c-3.143 0-4.714 0-5.69-.976-.977-.976-.977-2.548-.977-5.69V10Z" stroke="#121212"/><path d="M5.833 3.333v-1.25m8.334 1.25v-1.25M2.083 7.5h15.833" stroke="#121212" stroke-linecap="round"/><path d="M15 14.167a.833.833 0 1 1-1.667 0 .833.833 0 0 1 1.667 0Zm0-3.334a.833.833 0 1 1-1.667 0 .833.833 0 0 1 1.667 0Zm-4.166 3.334a.833.833 0 1 1-1.667 0 .833.833 0 0 1 1.667 0Zm0-3.334a.833.833 0 1 1-1.667 0 .833.833 0 0 1 1.667 0Zm-4.167 3.334a.833.833 0 1 1-1.667 0 .833.833 0 0 1 1.667 0Zm0-3.334a.833.833 0 1 1-1.667 0 .833.833 0 0 1 1.667 0Z" fill="#121212"/></svg>