<svg width="16" height="16" fill="none" xmlns="http://www.w3.org/2000/svg"><path d="M3.333 2.667h.12A1.994 1.994 0 0 0 5.333 4h1.334c.866 0 1.6-.56 1.88-1.333h.12c.913 0 1.706.613 1.94 1.5.093.36.453.573.813.48a.67.67 0 0 0 .48-.814 3.33 3.33 0 0 0-3.227-2.5H8.56A2.002 2.002 0 0 0 6.673 0H5.34a2.01 2.01 0 0 0-1.887 1.333H3.34A3.336 3.336 0 0 0 0 4.667v8A3.335 3.335 0 0 0 3.333 16h2C5.7 16 6 15.7 6 15.333c0-.366-.3-.666-.667-.666h-2c-1.1 0-2-.9-2-2v-8c0-1.1.9-2 2-2Zm2-1.334h1.334c.366 0 .666.3.666.667 0 .367-.3.667-.666.667H5.333A.669.669 0 0 1 4.667 2c0-.367.3-.667.666-.667Zm8 4.667H10a2.666 2.666 0 0 0-2.667 2.667v4.666A2.666 2.666 0 0 0 10 16h3.333A2.666 2.666 0 0 0 16 13.333V8.667A2.666 2.666 0 0 0 13.333 6Zm1.334 7.333c0 .734-.6 1.334-1.334 1.334H10c-.733 0-1.333-.6-1.333-1.334V8.667c0-.734.6-1.334 1.333-1.334h3.333c.734 0 1.334.6 1.334 1.334v4.666Zm-1.334-4c0 .367-.3.667-.666.667h-2A.669.669 0 0 1 10 9.333c0-.366.3-.666.667-.666h2c.366 0 .666.3.666.666Zm0 2.667c0 .367-.3.667-.666.667h-2A.669.669 0 0 1 10 12c0-.367.3-.667.667-.667h2c.366 0 .666.3.666.667Z" fill="#888"/></svg>