<svg width="28" height="26" fill="none" xmlns="http://www.w3.org/2000/svg"><path fill-rule="evenodd" clip-rule="evenodd" d="M26.277 8.611H25.25v7.404a3.428 3.428 0 0 1-3.403 3.403H11.082l-1.305 1.267a1.13 1.13 0 0 0 1.069.931h8.901l3.801 3.727a.6.6 0 0 0 .415.157h.198a.604.604 0 0 0 .356-.555v-3.329h1.74a1.105 1.105 0 0 0 1.109-1.11V9.68a1.097 1.097 0 0 0-1.11-1.069h.021Z" fill="#FF3F1A"/><path fill-rule="evenodd" clip-rule="evenodd" d="M1.742.5h20.106a1.412 1.412 0 0 1 1.424 1.383v14.131a1.445 1.445 0 0 1-1.424 1.425H10.255l-4.969 4.906a.931.931 0 0 1-.828.162.729.729 0 0 1-.476-.717v-4.35h-2.24a1.446 1.446 0 0 1-1.424-1.425V1.883A1.412 1.412 0 0 1 1.742.5Z" fill="#FF3F1A"/></svg>