<svg width="134" height="25" viewBox="0 0 134 25" fill="none" xmlns="http://www.w3.org/2000/svg">
<path d="M19.4688 1.15625V15.9375C19.4688 17.5104 19.1198 18.9323 18.4219 20.2031C17.7344 21.4635 16.6875 22.4635 15.2812 23.2031C13.8854 23.9427 12.125 24.3125 10 24.3125C6.97917 24.3125 4.67708 23.5417 3.09375 22C1.51042 20.4583 0.71875 18.4167 0.71875 15.875V1.15625H5.54688V15.1406C5.54688 17.026 5.93229 18.349 6.70312 19.1094C7.47396 19.8698 8.61458 20.25 10.125 20.25C11.1875 20.25 12.0469 20.0677 12.7031 19.7031C13.3698 19.3385 13.8594 18.776 14.1719 18.0156C14.4844 17.2552 14.6406 16.2865 14.6406 15.1094V1.15625H19.4688ZM45.3281 24H39.1719L29.2344 6.71875H29.0938C29.1354 7.4375 29.1719 8.16146 29.2031 8.89062C29.2344 9.61979 29.2656 10.349 29.2969 11.0781C29.3281 11.7969 29.3594 12.5208 29.3906 13.25V24H25.0625V1.15625H31.1719L41.0938 18.2656H41.2031C41.1823 17.5573 41.1562 16.8542 41.125 16.1562C41.0938 15.4583 41.0625 14.7604 41.0312 14.0625C41.0104 13.3646 40.9896 12.6667 40.9688 11.9688V1.15625H45.3281V24ZM51.0938 24V1.15625H55.9375V24H51.0938ZM71.3906 4.85938C70.4635 4.85938 69.6406 5.04167 68.9219 5.40625C68.2135 5.76042 67.6146 6.27604 67.125 6.95312C66.6458 7.63021 66.2812 8.44792 66.0312 9.40625C65.7812 10.3646 65.6562 11.4427 65.6562 12.6406C65.6562 14.2552 65.8542 15.6354 66.25 16.7812C66.6562 17.9167 67.2812 18.7865 68.125 19.3906C68.9688 19.9844 70.0573 20.2812 71.3906 20.2812C72.3177 20.2812 73.2448 20.1771 74.1719 19.9688C75.1094 19.7604 76.125 19.4635 77.2188 19.0781V23.1406C76.2083 23.5573 75.2135 23.8542 74.2344 24.0312C73.2552 24.2188 72.1562 24.3125 70.9375 24.3125C68.5833 24.3125 66.6458 23.8281 65.125 22.8594C63.6146 21.8802 62.4948 20.5156 61.7656 18.7656C61.0365 17.0052 60.6719 14.9531 60.6719 12.6094C60.6719 10.8802 60.9062 9.29688 61.375 7.85938C61.8438 6.42188 62.5312 5.17708 63.4375 4.125C64.3438 3.07292 65.4635 2.26042 66.7969 1.6875C68.1302 1.11458 69.6615 0.828125 71.3906 0.828125C72.526 0.828125 73.6615 0.973958 74.7969 1.26562C75.9427 1.54688 77.0365 1.9375 78.0781 2.4375L76.5156 6.375C75.6615 5.96875 74.8021 5.61458 73.9375 5.3125C73.0729 5.01042 72.224 4.85938 71.3906 4.85938ZM82.0938 24V1.15625H86.9375V20H96.2031V24H82.0938ZM113.344 24H100.188V1.15625H113.344V5.125H105.031V10.1406H112.766V14.1094H105.031V20H113.344V24ZM126.938 24H122.094V5.1875H115.891V1.15625H133.141V5.1875H126.938V24Z" fill="#FF3F1A"/>
</svg>
