<svg width="134" height="25" fill="none" xmlns="http://www.w3.org/2000/svg"><path d="M19.469 1.156v14.781c0 1.573-.35 2.995-1.047 4.266-.688 1.26-1.735 2.26-3.14 3-1.397.74-3.157 1.11-5.282 1.11-3.02 0-5.323-.771-6.906-2.313C1.51 20.458.719 18.417.719 15.875V1.156h4.828v13.985c0 1.885.385 3.208 1.156 3.968.771.76 1.912 1.141 3.422 1.141 1.063 0 1.922-.182 2.578-.547.667-.364 1.156-.927 1.469-1.687.312-.76.469-1.73.469-2.907V1.156h4.828ZM45.329 24h-6.157L29.234 6.719h-.14c.041.718.078 1.442.11 2.172l.093 2.187.094 2.172V24h-4.328V1.156h6.109l9.922 17.11h.11c-.022-.709-.048-1.412-.079-2.11l-.094-2.093-.062-2.094V1.156h4.36V24Zm5.765 0V1.156h4.843V24h-4.843ZM71.39 4.86c-.928 0-1.75.182-2.47.546a4.908 4.908 0 0 0-1.796 1.547c-.48.677-.844 1.495-1.094 2.453-.25.959-.375 2.037-.375 3.235 0 1.614.198 2.994.594 4.14.406 1.136 1.031 2.006 1.875 2.61.844.593 1.932.89 3.266.89.927 0 1.854-.104 2.78-.312a26.616 26.616 0 0 0 3.048-.89v4.062c-1.01.416-2.005.713-2.985.89-.979.188-2.078.282-3.296.282-2.355 0-4.292-.485-5.813-1.454-1.51-.979-2.63-2.343-3.36-4.093-.729-1.76-1.093-3.813-1.093-6.157 0-1.729.234-3.312.703-4.75.469-1.437 1.156-2.682 2.063-3.734.906-1.052 2.025-1.865 3.359-2.438 1.333-.572 2.865-.859 4.594-.859 1.135 0 2.27.146 3.406.438 1.146.28 2.24.671 3.281 1.171l-1.562 3.938a25.855 25.855 0 0 0-2.579-1.063 7.691 7.691 0 0 0-2.546-.453ZM82.094 24V1.156h4.844V20h9.265v4h-14.11Zm31.25 0h-13.156V1.156h13.156v3.969h-8.313v5.016h7.735v3.968h-7.735V20h8.313v4Zm13.594 0h-4.844V5.187h-6.203v-4.03h17.25v4.03h-6.203V24Z" fill="#FF3F1A"/></svg>