<svg width="23" height="26" viewBox="0 0 23 26" fill="none" xmlns="http://www.w3.org/2000/svg">
<path d="M3.48924 19.2461H19.7942C20.296 19.2461 20.7904 19.1252 21.2356 18.8937C21.6808 18.6622 22.0637 18.3269 22.3519 17.9161C22.6401 17.5053 22.8251 17.0312 22.8913 16.5337C22.9575 16.0363 22.9029 15.5303 22.7321 15.0584L19.7619 6.84659C19.2546 5.02167 18.1635 3.41313 16.6556 2.26699C15.1476 1.12086 13.3057 0.500221 11.4115 0.5C9.43979 0.499969 7.52699 1.17235 5.98894 2.40612C4.45089 3.63989 3.37956 5.36128 2.95185 7.28608L0.504444 15.2011C0.360349 15.6684 0.327955 16.163 0.409868 16.6451C0.491782 17.1272 0.685716 17.5833 0.976066 17.9768C1.26642 18.3703 1.64507 18.6901 2.08157 18.9106C2.51807 19.131 3.00023 19.246 3.48924 19.2461Z" fill="#FF3F1A"/>
<path d="M6.64697 21.3291C6.886 22.5062 7.52463 23.5645 8.45466 24.3247C9.38469 25.0849 10.5489 25.5001 11.7501 25.5001C12.9512 25.5001 14.1155 25.0849 15.0455 24.3247C15.9755 23.5645 16.6141 22.5062 16.8532 21.3291H6.64697Z" fill="#FF3F1A"/>
</svg>
