<svg width="16" height="17" viewBox="0 0 16 17" fill="none" xmlns="http://www.w3.org/2000/svg">
<path d="M6.66652 6.8335C6.66652 7.93807 5.77109 8.8335 4.66652 8.8335C3.56195 8.8335 2.66652 7.93807 2.66652 6.8335C2.66652 5.72893 3.56195 4.8335 4.66652 4.8335C5.77109 4.8335 6.66652 5.72893 6.66652 6.8335Z" stroke="#447981"/>
<path d="M13.3335 10.1665C13.3335 9.06193 12.4381 8.1665 11.3335 8.1665C10.2289 8.1665 9.33351 9.06193 9.33351 10.1665C9.33351 11.2711 10.2289 12.1665 11.3335 12.1665C12.4381 12.1665 13.3335 11.2711 13.3335 10.1665Z" stroke="#447981"/>
<path d="M4.69434 10.5L4.69434 15.1667" stroke="#447981" stroke-linecap="round"/>
<path d="M11.3608 6.5L11.3608 1.83333" stroke="#447981" stroke-linecap="round"/>
<path d="M4.69434 1.8335L4.69434 3.16683" stroke="#447981" stroke-linecap="round"/>
<path d="M11.3608 15.1665L11.3608 13.8332" stroke="#447981" stroke-linecap="round"/>
</svg>
