<svg width="28" height="26" viewBox="0 0 28 26" fill="none" xmlns="http://www.w3.org/2000/svg">
<path fill-rule="evenodd" clip-rule="evenodd" d="M26.277 8.6114H25.2501V16.0145C25.2436 16.9151 24.883 17.777 24.2461 18.4139C23.6092 19.0508 22.7473 19.4114 21.8467 19.4179H11.0816L9.77734 20.6849C9.82247 20.9387 9.95301 21.1695 10.1473 21.3389C10.3416 21.5084 10.588 21.6063 10.8456 21.6165H19.7475L23.5484 25.3429C23.6613 25.4462 23.8094 25.5025 23.9625 25.5002H24.1612C24.2679 25.4521 24.3583 25.3741 24.4215 25.2756C24.4847 25.1771 24.518 25.0624 24.5173 24.9454V21.6165H26.2563C26.4021 21.617 26.5467 21.5887 26.6815 21.5331C26.8164 21.4776 26.939 21.3959 27.0421 21.2927C27.1453 21.1896 27.227 21.067 27.2825 20.9321C27.3381 20.7973 27.3664 20.6527 27.3659 20.5069V9.67963C27.3583 9.39153 27.2377 9.11797 27.03 8.91809C26.8224 8.7182 26.5445 8.60804 26.2563 8.6114H26.277Z" fill="#FF3F1A"/>
<path fill-rule="evenodd" clip-rule="evenodd" d="M1.74218 0.500057H21.8481C22.2197 0.49671 22.5777 0.640027 22.8444 0.898917C23.111 1.15781 23.2648 1.51139 23.2724 1.88296V16.0143C23.2671 16.3903 23.1153 16.7495 22.8493 17.0155C22.5834 17.2814 22.2242 17.4332 21.8481 17.4386H10.2549L5.28639 22.345C5.12896 22.4687 4.93586 22.5384 4.73571 22.5437C4.64169 22.5498 4.5474 22.5371 4.4583 22.5065C4.31321 22.453 4.18887 22.3548 4.10328 22.226C4.01768 22.0973 3.97526 21.9446 3.98215 21.7902V17.4386H1.74218C1.3661 17.4332 1.00692 17.2814 0.740959 17.0155C0.475 16.7495 0.323222 16.3903 0.317871 16.0143L0.317871 1.88296C0.325485 1.51139 0.479297 1.15781 0.745939 0.898917C1.01258 0.640027 1.37055 0.49671 1.74218 0.500057Z" fill="#FF3F1A"/>
</svg>
