<svg width="24" height="27" viewBox="0 0 24 27" fill="none" xmlns="http://www.w3.org/2000/svg">
<path d="M17.8239 6.33333C17.8239 7.88043 17.2093 9.36416 16.1153 10.4581C15.0214 11.5521 13.5377 12.1667 11.9906 12.1667C10.4435 12.1667 8.95973 11.5521 7.86577 10.4581C6.77181 9.36416 6.15723 7.88043 6.15723 6.33333C6.15723 4.78624 6.77181 3.30251 7.86577 2.20854C8.95973 1.11458 10.4435 0.5 11.9906 0.5C13.5377 0.5 15.0214 1.11458 16.1153 2.20854C17.2093 3.30251 17.8239 4.78624 17.8239 6.33333Z" fill="#FF3F1A"/>
<path d="M22.1959 25.4998H2.72421C2.05421 25.4998 1.67588 24.7648 2.09421 24.2415C3.95255 21.9132 8.29588 17.1665 12.8125 17.1665C17.3575 17.1665 21.2509 21.9765 22.8575 24.2882C23.2242 24.8165 22.8409 25.4998 22.1975 25.4998H22.1959Z" fill="#FF3F1A" stroke="#FF3F1A" stroke-width="2" stroke-linecap="round" stroke-linejoin="round"/>
</svg>
