<svg width="16" height="15" viewBox="0 0 16 15" fill="none" xmlns="http://www.w3.org/2000/svg">
<path d="M3.3335 9.50016H2.66683C2.31321 9.50016 1.97407 9.35969 1.72402 9.10964C1.47397 8.85959 1.3335 8.52045 1.3335 8.16683V2.16683C1.3335 1.81321 1.47397 1.47407 1.72402 1.22402C1.97407 0.973972 2.31321 0.833496 2.66683 0.833496H8.66683C9.02045 0.833496 9.35959 0.973972 9.60964 1.22402C9.85969 1.47407 10.0002 1.81321 10.0002 2.16683V2.8335M7.3335 5.50016H13.3335C14.0699 5.50016 14.6668 6.09712 14.6668 6.8335V12.8335C14.6668 13.5699 14.0699 14.1668 13.3335 14.1668H7.3335C6.59712 14.1668 6.00016 13.5699 6.00016 12.8335V6.8335C6.00016 6.09712 6.59712 5.50016 7.3335 5.50016Z" stroke="#757575" stroke-width="1.6" stroke-linecap="round" stroke-linejoin="round"/>
</svg>
