<svg width="26" height="26" viewBox="0 0 26 26" fill="none" xmlns="http://www.w3.org/2000/svg">
<path d="M24.8615 22.8388L20.0228 17.998C23.6434 13.1597 22.6562 6.30244 17.8179 2.68189C12.9796 -0.938651 6.12226 0.0485539 2.50172 4.88686C-1.11883 9.72518 -0.131622 16.5825 4.70669 20.203C8.59322 23.1113 13.9313 23.1113 17.8179 20.203L22.6586 25.0438C23.2669 25.6521 24.2532 25.6521 24.8615 25.0438C25.4698 24.4354 25.4698 23.4492 24.8615 22.8409L24.8615 22.8388ZM11.3026 19.2687C7.00256 19.2687 3.51671 15.7829 3.51671 11.4828C3.51671 7.18274 7.00256 3.69689 11.3026 3.69689C15.6027 3.69689 19.0885 7.18274 19.0885 11.4828C19.084 15.7809 15.6008 19.2641 11.3026 19.2687Z" fill="#FF3F1A"/>
</svg>
