<svg width="14" height="13" viewBox="0 0 14 13" fill="none" xmlns="http://www.w3.org/2000/svg">
<path d="M6.79948 0.898423C6.81703 0.859706 6.84537 0.826867 6.8811 0.803835C6.91683 0.780803 6.95844 0.768555 7.00095 0.768555C7.04346 0.768555 7.08507 0.780803 7.1208 0.803835C7.15653 0.826867 7.18487 0.859706 7.20242 0.898423L8.79376 4.40033C8.80955 4.43496 8.83401 4.46494 8.86477 4.48735C8.89553 4.50977 8.93156 4.52387 8.96937 4.52829L12.8041 4.98364C12.9974 5.0061 13.0696 5.24909 12.9198 5.37365L10.0543 7.74909C10.0234 7.77484 10.0001 7.80854 9.98688 7.84656C9.97368 7.88458 9.97111 7.92548 9.97944 7.96485L10.801 11.9657C10.8098 12.0081 10.806 12.0521 10.79 12.0924C10.774 12.1326 10.7465 12.1673 10.711 12.1921C10.6755 12.2168 10.6335 12.2307 10.5902 12.2318C10.5469 12.2329 10.5042 12.2213 10.4675 12.1984L7.11666 10.1204C7.08162 10.0987 7.04118 10.0871 6.99993 10.0871C6.95867 10.0871 6.91824 10.0987 6.8832 10.1204L3.53376 12.1984C3.497 12.2213 3.45432 12.2329 3.41103 12.2318C3.36774 12.2307 3.32573 12.2168 3.29022 12.1921C3.25471 12.1673 3.22725 12.1326 3.21126 12.0924C3.19526 12.0521 3.19143 12.0081 3.20024 11.9657L4.02178 7.96485C4.0299 7.92552 4.02715 7.88472 4.01384 7.84683C4.00053 7.80894 3.97716 7.77538 3.94623 7.74977L1.08072 5.37433C1.04715 5.34672 1.02245 5.30983 1.00971 5.26827C0.996972 5.22671 0.996763 5.18232 1.00911 5.14064C1.02145 5.09896 1.0458 5.06184 1.07912 5.03392C1.11243 5.00599 1.15324 4.98851 1.19643 4.98364L5.03117 4.52829C5.06898 4.52387 5.105 4.50977 5.13577 4.48735C5.16653 4.46494 5.19099 4.43496 5.20678 4.40033L6.7988 0.898423H6.79948Z" fill="#FFCC00" stroke="#FFCC00" stroke-linejoin="round"/>
</svg>
